<mxfile host="app.diagrams.net" modified="2024-03-22T12:06:30.410Z" agent="Mozilla/5.0 (Windows NT 10.0; Win64; x64) AppleWebKit/537.36 (KHTML, like Gecko) Chrome/122.0.0.0 Safari/537.36" etag="fw0P5Csrrqu-ElzG-Bx-" version="24.0.7" type="device">
  <diagram name="Trang-1" id="RbP3OkpAAQSZIJcNxKSz">
    <mxGraphModel dx="818" dy="837" grid="1" gridSize="10" guides="1" tooltips="1" connect="1" arrows="1" fold="1" page="1" pageScale="1" pageWidth="827" pageHeight="1169" math="0" shadow="0">
      <root>
        <mxCell id="0" />
        <mxCell id="1" parent="0" />
        <mxCell id="_TglKIyG4dgLx03RQm6f-1" value="Khách Hàng" style="rounded=0;whiteSpace=wrap;html=1;" parent="1" vertex="1">
          <mxGeometry x="150" y="260" width="120" height="60" as="geometry" />
        </mxCell>
        <mxCell id="_TglKIyG4dgLx03RQm6f-2" value="Hệ thống website bán hàng" style="rounded=0;whiteSpace=wrap;html=1;" parent="1" vertex="1">
          <mxGeometry x="380" y="260" width="120" height="60" as="geometry" />
        </mxCell>
        <mxCell id="_TglKIyG4dgLx03RQm6f-3" value="Nhà quản trị" style="rounded=0;whiteSpace=wrap;html=1;" parent="1" vertex="1">
          <mxGeometry x="610" y="260" width="120" height="60" as="geometry" />
        </mxCell>
        <mxCell id="_TglKIyG4dgLx03RQm6f-4" value="" style="endArrow=classic;html=1;rounded=0;exitX=0.45;exitY=-0.05;exitDx=0;exitDy=0;exitPerimeter=0;entryX=0.25;entryY=0;entryDx=0;entryDy=0;" parent="1" source="_TglKIyG4dgLx03RQm6f-1" target="_TglKIyG4dgLx03RQm6f-2" edge="1">
          <mxGeometry width="50" height="50" relative="1" as="geometry">
            <mxPoint x="390" y="400" as="sourcePoint" />
            <mxPoint x="440" y="350" as="targetPoint" />
            <Array as="points">
              <mxPoint x="204" y="160" />
              <mxPoint x="410" y="160" />
            </Array>
          </mxGeometry>
        </mxCell>
        <mxCell id="_TglKIyG4dgLx03RQm6f-5" value="" style="endArrow=classic;html=1;rounded=0;exitX=0.5;exitY=0;exitDx=0;exitDy=0;entryX=0.75;entryY=0;entryDx=0;entryDy=0;" parent="1" source="_TglKIyG4dgLx03RQm6f-3" target="_TglKIyG4dgLx03RQm6f-2" edge="1">
          <mxGeometry width="50" height="50" relative="1" as="geometry">
            <mxPoint x="575" y="150" as="sourcePoint" />
            <mxPoint x="625" y="100" as="targetPoint" />
            <Array as="points">
              <mxPoint x="670" y="160" />
              <mxPoint x="470" y="160" />
            </Array>
          </mxGeometry>
        </mxCell>
        <mxCell id="_TglKIyG4dgLx03RQm6f-6" value="" style="endArrow=classic;html=1;rounded=0;entryX=0.5;entryY=1;entryDx=0;entryDy=0;exitX=0.25;exitY=1;exitDx=0;exitDy=0;" parent="1" source="_TglKIyG4dgLx03RQm6f-2" target="_TglKIyG4dgLx03RQm6f-1" edge="1">
          <mxGeometry width="50" height="50" relative="1" as="geometry">
            <mxPoint x="510" y="620" as="sourcePoint" />
            <mxPoint x="560" y="570" as="targetPoint" />
            <Array as="points">
              <mxPoint x="410" y="420" />
              <mxPoint x="210" y="420" />
            </Array>
          </mxGeometry>
        </mxCell>
        <mxCell id="_TglKIyG4dgLx03RQm6f-9" value="" style="endArrow=classic;html=1;rounded=0;exitX=0.5;exitY=1;exitDx=0;exitDy=0;entryX=0.75;entryY=1;entryDx=0;entryDy=0;" parent="1" source="_TglKIyG4dgLx03RQm6f-3" target="_TglKIyG4dgLx03RQm6f-2" edge="1">
          <mxGeometry width="50" height="50" relative="1" as="geometry">
            <mxPoint x="390" y="400" as="sourcePoint" />
            <mxPoint x="440" y="350" as="targetPoint" />
            <Array as="points">
              <mxPoint x="670" y="420" />
              <mxPoint x="470" y="420" />
            </Array>
          </mxGeometry>
        </mxCell>
        <mxCell id="QSe5_PaTZ_gnCn08tfPo-1" value="Thông tin yêu cầu mua sản phẩm" style="text;html=1;align=center;verticalAlign=middle;resizable=0;points=[];autosize=1;strokeColor=none;fillColor=none;" vertex="1" parent="1">
          <mxGeometry x="214" y="130" width="200" height="30" as="geometry" />
        </mxCell>
        <mxCell id="QSe5_PaTZ_gnCn08tfPo-3" value="Thông tin về đáp ứng yêu cầu" style="text;html=1;align=center;verticalAlign=middle;resizable=0;points=[];autosize=1;strokeColor=none;fillColor=none;" vertex="1" parent="1">
          <mxGeometry x="214" y="428" width="180" height="30" as="geometry" />
        </mxCell>
        <mxCell id="QSe5_PaTZ_gnCn08tfPo-4" value="Thông tin báo cáo thống kê" style="text;html=1;align=center;verticalAlign=middle;resizable=0;points=[];autosize=1;strokeColor=none;fillColor=none;" vertex="1" parent="1">
          <mxGeometry x="480" y="428" width="170" height="30" as="geometry" />
        </mxCell>
        <mxCell id="QSe5_PaTZ_gnCn08tfPo-5" value="Thông tin gửi yêu cầu thống kê" style="text;html=1;align=center;verticalAlign=middle;resizable=0;points=[];autosize=1;strokeColor=none;fillColor=none;" vertex="1" parent="1">
          <mxGeometry x="480" y="128" width="190" height="30" as="geometry" />
        </mxCell>
      </root>
    </mxGraphModel>
  </diagram>
</mxfile>
